<svg width="48" height="48" viewBox="0 0 48 48" fill="none" xmlns="http://www.w3.org/2000/svg">
  <path opacity="0.3" d="M24.0012 32C12.4814 32 10.4406 20.519 10.0791 11.4129C9.97855 8.87996 9.92827 7.61346 10.8797 6.44166C11.8311 5.26988 12.9699 5.07774 15.2473 4.69348C17.4955 4.31418 20.4342 4 24.0012 4C27.5684 4 30.5072 4.31418 32.7552 4.69348C35.0326 5.07774 36.1714 5.26988 37.1228 6.44166C38.0742 7.61346 38.024 8.87996 37.9234 11.4129C37.562 20.519 35.5212 32 24.0012 32Z" fill="#134b70"/>
  <path d="M35.2808 24.844L40.9138 21.7144C42.4186 20.8784 43.171 20.4604 43.5854 19.7562C43.9998 19.052 43.9998 18.1912 43.9998 16.4697V16.3247C44 14.2375 44 13.1938 43.4336 12.4082C42.8674 11.6225 41.8774 11.2925 39.8972 10.6324L38 10L37.9662 10.1693C37.9568 10.5478 37.9404 10.9601 37.9224 11.4129C37.7458 15.8617 37.1684 20.8774 35.2808 24.844Z" fill="#134b70"/>
  <path d="M10.0781 11.4129C10.2548 15.8619 10.8322 20.8778 12.7202 24.8446L7.0861 21.7144C5.58126 20.8784 4.82884 20.4604 4.41446 19.7562C4.00008 19.052 4.00006 18.1912 4 16.4697V16.3247C3.99994 14.2375 3.99992 13.1938 4.5662 12.4082C5.13248 11.6225 6.12252 11.2925 8.10264 10.6324L9.99988 10L10.0346 10.1734C10.0439 10.5508 10.0602 10.9618 10.0781 11.4129Z" fill="#134b70"/>
  <path fill-rule="evenodd" clip-rule="evenodd" d="M10.5 44C10.5 43.1716 11.1716 42.5 12 42.5H36C36.8284 42.5 37.5 43.1716 37.5 44C37.5 44.8284 36.8284 45.5 36 45.5H12C11.1716 45.5 10.5 44.8284 10.5 44Z" fill="#134b70"/>
  <path opacity="0.5" d="M30.9164 42.5H17.0859L17.6796 39.0004C17.8665 38.0654 18.6874 37.3926 19.6407 37.3926H28.3616C29.3148 37.3926 30.1358 38.0654 30.3226 39.0004L30.9164 42.5Z" fill="#134b70"/>
  <path d="M24.0004 32.0004C23.4812 32.0004 22.9814 31.977 22.5 31.9316V37.3926H25.5V31.9316C25.0188 31.977 24.5192 32.0004 24.0004 32.0004Z" fill="#134b70"/>
  <path fill-rule="evenodd" clip-rule="evenodd" d="M25.574 11.6142C26.1346 11.8464 26.5 12.3934 26.5 13V21C26.5 21.8284 25.8284 22.5 25 22.5C24.1716 22.5 23.5 21.8284 23.5 21V16.6214L23.0606 17.0607C22.4748 17.6465 21.5252 17.6465 20.9394 17.0607C20.3536 16.4749 20.3536 15.5252 20.9394 14.9394L23.9394 11.9394C24.3684 11.5104 25.0136 11.3821 25.574 11.6142Z" fill="#134b70"/>
</svg>
