<svg width="58" height="58" viewBox="0 0 50 49" fill="none" xmlns="http://www.w3.org/2000/svg">
<path d="M20.1667 5.16668C17.6029 5.16668 15.1442 6.18513 13.3313 7.99798C11.5185 9.81083 10.5 12.2696 10.5 14.8333C10.5 17.3971 11.5185 19.8559 13.3313 21.6687C15.1442 23.4816 17.6029 24.5 20.1667 24.5C22.7304 24.5 25.1892 23.4816 27.002 21.6687C28.8149 19.8559 29.8333 17.3971 29.8333 14.8333C29.8333 12.2696 28.8149 9.81083 27.002 7.99798C25.1892 6.18513 22.7304 5.16668 20.1667 5.16668ZM5.66668 14.8333C5.66668 10.9877 7.19435 7.29957 9.91363 4.58029C12.6329 1.86102 16.321 0.333344 20.1667 0.333344C24.0123 0.333344 27.7004 1.86102 30.4197 4.58029C33.139 7.29957 34.6667 10.9877 34.6667 14.8333C34.6667 18.679 33.139 22.3671 30.4197 25.0864C27.7004 27.8057 24.0123 29.3333 20.1667 29.3333C16.321 29.3333 12.6329 27.8057 9.91363 25.0864C7.19435 22.3671 5.66668 18.679 5.66668 14.8333ZM36.6677 4.57943C36.8921 4.35473 37.1586 4.17648 37.452 4.05487C37.7454 3.93325 38.0599 3.87065 38.3775 3.87065C38.6951 3.87065 39.0095 3.93325 39.3029 4.05487C39.5963 4.17648 39.8628 4.35473 40.0873 4.57943C41.434 5.92591 42.5023 7.52449 43.2311 9.28387C43.9599 11.0432 44.3351 12.929 44.3351 14.8333C44.3351 16.7377 43.9599 18.6234 43.2311 20.3828C42.5023 22.1422 41.434 23.7408 40.0873 25.0873C39.8627 25.3118 39.5962 25.4899 39.3028 25.6114C39.0094 25.7329 38.695 25.7955 38.3775 25.7955C38.0599 25.7955 37.7455 25.7329 37.4521 25.6114C37.1588 25.4899 36.8922 25.3118 36.6677 25.0873C36.4431 24.8627 36.265 24.5962 36.1435 24.3028C36.022 24.0094 35.9595 23.695 35.9595 23.3775C35.9595 23.0599 36.022 22.7455 36.1435 22.4521C36.265 22.1588 36.4431 21.8922 36.6677 21.6677C38.4799 19.8549 39.4979 17.3966 39.4979 14.8333C39.4979 12.2701 38.4799 9.81178 36.6677 7.99901C36.443 7.77457 36.2647 7.50804 36.1431 7.21466C36.0215 6.92128 35.9589 6.60681 35.9589 6.28922C35.9589 5.97163 36.0215 5.65716 36.1431 5.36378C36.2647 5.0704 36.443 4.80387 36.6677 4.57943ZM38.3642 35.9961C38.52 35.3749 38.9159 34.841 39.4651 34.5116C40.0143 34.1821 40.6718 34.0842 41.2932 34.2392C44.5025 35.0415 46.5349 37.0908 47.7022 39.4302C48.8332 41.6898 49.1667 44.2152 49.1667 46.25C49.1667 46.8909 48.9121 47.5056 48.4589 47.9589C48.0056 48.4121 47.3909 48.6667 46.75 48.6667C46.1091 48.6667 45.4944 48.4121 45.0412 47.9589C44.588 47.5056 44.3333 46.8909 44.3333 46.25C44.3333 44.6623 44.0627 42.9561 43.3812 41.5907C42.7359 40.3026 41.7451 39.3335 40.1211 38.9275C39.4999 38.7717 38.966 38.3757 38.6366 37.8266C38.3071 37.2774 38.2092 36.6175 38.3642 35.9961ZM11.7083 39C8.66334 39 5.66668 41.9314 5.66668 46.25C5.66668 46.8909 5.41206 47.5056 4.95885 47.9589C4.50564 48.4121 3.89095 48.6667 3.25001 48.6667C2.60907 48.6667 1.99438 48.4121 1.54117 47.9589C1.08796 47.5056 0.833344 46.8909 0.833344 46.25C0.833344 39.8893 5.40809 34.1667 11.7083 34.1667H28.625C34.9253 34.1667 39.5 39.8893 39.5 46.25C39.5 46.8909 39.2454 47.5056 38.7922 47.9589C38.339 48.4121 37.7243 48.6667 37.0833 48.6667C36.4424 48.6667 35.8277 48.4121 35.3745 47.9589C34.9213 47.5056 34.6667 46.8909 34.6667 46.25C34.6667 41.9314 31.67 39 28.625 39H11.7083Z" fill="#134B70"/>
</svg>
