<svg width="22" height="22" viewBox="0 0 22 22" fill="none" xmlns="http://www.w3.org/2000/svg">
<g clip-path="url(#clip0_17_285)">
<path d="M20.0097 0.871338H1.99033C1.69403 0.871338 1.40987 0.989041 1.20036 1.19855C0.990842 1.40807 0.873138 1.69223 0.873138 1.98853V20.0096C0.873138 20.3059 0.990842 20.5901 1.20036 20.7996C1.40987 21.0091 1.69403 21.1268 1.99033 21.1268H11.6875V13.2842H9.05095V10.2265H11.6875V7.9715C11.6875 5.35556 13.2859 3.93071 15.62 3.93071C16.4077 3.9279 17.1949 3.96807 17.9781 4.05103V6.78556H16.3642C15.0941 6.78556 14.8483 7.38884 14.8483 8.27399V10.2265H17.875L17.4814 13.2842H14.8483V21.1285H20.0045C20.3007 21.1281 20.5846 21.0102 20.794 20.8008C21.0034 20.5914 21.1213 20.3075 21.1217 20.0113V1.99024C21.1222 1.69454 21.0054 1.41072 20.7969 1.20098C20.5885 0.991244 20.3054 0.872702 20.0097 0.871338Z" fill="#337AB7"/>
</g>
<defs>
<clipPath id="clip0_17_285">
<rect width="22" height="22" fill="white"/>
</clipPath>
</defs>
</svg>
