<?xml version="1.0" standalone="no"?>
<!DOCTYPE svg PUBLIC "-//W3C//DTD SVG 20010904//EN"
 "http://www.w3.org/TR/2001/REC-SVG-20010904/DTD/svg10.dtd">
<svg version="1.0" xmlns="http://www.w3.org/2000/svg"
 width="48" height="48" viewBox="0 0 512.000000 512.000000"
 preserveAspectRatio="xMidYMid meet">

<g transform="translate(0.000000,512.000000) scale(0.100000,-0.100000)"
fill="#134b70" stroke="none">
<path d="M2429 4595 c-427 -404 -989 -532 -1537 -349 -128 42 -163 43 -192 7
l-21 -27 4 -826 c4 -879 4 -879 56 -1118 63 -289 211 -589 412 -840 83 -102
288 -311 419 -426 256 -225 427 -347 630 -450 122 -63 316 -136 358 -136 11 0
68 16 126 34 188 62 443 206 631 355 242 193 517 455 653 623 201 248 350 550
413 840 52 239 52 239 56 1118 l4 826 -21 27 c-29 36 -64 35 -192 -7 -384
-128 -759 -108 -1113 58 -171 81 -292 165 -437 303 -117 112 -118 112 -249
-12z m336 -790 c110 -37 187 -86 272 -172 53 -54 83 -96 113 -156 64 -132 72
-173 77 -429 l5 -227 37 -12 c91 -30 161 -108 181 -202 8 -36 10 -208 8 -547
-3 -477 -4 -497 -24 -540 -27 -60 -77 -108 -140 -137 l-52 -23 -693 2 c-663 3
-696 4 -733 22 -53 27 -104 80 -130 135 -21 45 -21 57 -21 576 l0 530 30 54
c33 59 96 112 156 130 l37 11 5 233 c5 259 11 291 76 422 87 176 254 304 456
351 93 21 242 12 340 -21z"/>
<path d="M2420 3641 c-122 -39 -218 -114 -280 -217 -58 -96 -69 -160 -69 -396
l-1 -208 490 0 490 0 0 200 c0 109 -5 223 -11 252 -37 176 -171 319 -348 372
-72 21 -200 20 -271 -3z"/>
<path d="M1888 2634 c-15 -8 -32 -23 -38 -34 -14 -26 -14 -994 0 -1021 27 -49
24 -49 703 -49 426 0 644 4 665 11 64 22 62 8 62 549 0 318 -4 498 -10 511
-27 49 -23 49 -712 49 -548 -1 -647 -3 -670 -16z m752 -304 c51 -26 82 -72 88
-131 6 -65 -2 -93 -42 -137 -30 -34 -34 -44 -38 -111 -3 -65 -7 -76 -31 -97
-16 -13 -41 -24 -57 -24 -16 0 -41 11 -57 24 -24 21 -28 32 -31 97 -3 64 -8
78 -32 104 -40 44 -52 72 -52 125 0 130 134 210 252 150z"/>
</g>
</svg>
