<svg width="51" height="51" viewBox="0 0 51 51" fill="none" xmlns="http://www.w3.org/2000/svg">
<path d="M24.2992 39.4758C20.579 39.3 17.0696 37.6978 14.4999 35.0021C11.9302 32.3063 10.4977 28.7243 10.5 25C10.5 17.0008 17.0008 10.5 25 10.5C32.7817 10.5 39.1133 16.6142 39.4758 24.2992L34.4008 22.7767C34.0058 21.1014 33.1706 19.562 31.9814 18.3176C30.7923 17.0733 29.2923 16.169 27.6367 15.6985C25.981 15.2279 24.2298 15.208 22.5639 15.6409C20.898 16.0738 19.3779 16.9438 18.1609 18.1609C16.9438 19.3779 16.0738 20.898 15.6409 22.5639C15.208 24.2298 15.2279 25.9811 15.6985 27.6367C16.169 29.2923 17.0732 30.7923 18.3176 31.9814C19.562 33.1706 21.1014 34.0058 22.7767 34.4008L24.2992 39.4758ZM49.1667 25C49.1667 25.725 49.1425 26.45 49.07 27.175L44.3092 25.7492C44.3333 25.5075 44.3333 25.2417 44.3333 25C44.3333 14.3183 35.6817 5.66668 25 5.66668C14.3183 5.66668 5.66667 14.3183 5.66667 25C5.66667 35.6817 14.3183 44.3333 25 44.3333C25.2417 44.3333 25.5075 44.3333 25.7492 44.3092L27.175 49.07C26.45 49.1425 25.725 49.1667 25 49.1667C11.66 49.1667 0.833336 38.34 0.833336 25C0.833336 11.66 11.66 0.833344 25 0.833344C38.34 0.833344 49.1667 11.66 49.1667 25ZM40.0558 35.295L49.1667 32.25L25 25L32.25 49.1667L35.295 40.0558L45.6142 50.375L50.3992 45.59L40.0558 35.295Z" fill="#134B70"/>
</svg>
