<svg width="58" height="58" viewBox="0 0 54 46" fill="none" xmlns="http://www.w3.org/2000/svg">
<path d="M24.5486 36.7614C24.8021 37.014 25.0032 37.3141 25.1404 37.6446C25.2776 37.9751 25.3482 38.3294 25.3482 38.6872C25.3482 39.045 25.2776 39.3993 25.1404 39.7298C25.0032 40.0603 24.8021 40.3604 24.5486 40.613L23.3886 41.773C22.1572 43.0089 20.6931 43.9885 19.0807 44.655C17.4684 45.3216 15.74 45.6619 13.9953 45.6563C11.3679 45.6571 8.79936 44.8786 6.61451 43.4193C4.42966 41.9601 2.72673 39.8855 1.72117 37.4582C0.715603 35.0309 0.452586 32.3598 0.965393 29.783C1.4782 27.2061 2.74379 24.8393 4.60204 22.9819L12.4751 15.1088C14.1497 13.4345 16.2414 12.2381 18.5336 11.6437C20.8259 11.0492 23.2353 11.0782 25.5126 11.7277C27.7899 12.3772 29.8521 13.6236 31.4859 15.3378C33.1197 17.052 34.2657 19.1717 34.8051 21.4775C34.8944 21.8281 34.9129 22.193 34.8594 22.5508C34.8059 22.9086 34.6816 23.2522 34.4936 23.5613C34.3056 23.8704 34.0579 24.139 33.7648 24.3511C33.4717 24.5633 33.1393 24.7148 32.7869 24.7968C32.4345 24.8788 32.0693 24.8897 31.7127 24.8288C31.3561 24.7679 31.0152 24.6364 30.71 24.442C30.4049 24.2477 30.1416 23.9944 29.9356 23.697C29.7296 23.3995 29.585 23.064 29.5103 22.71C29.1902 21.3489 28.5124 20.098 27.5469 19.0865C26.5814 18.0751 25.3633 17.3399 24.0186 16.957C22.6738 16.574 21.2511 16.5572 19.8976 16.9082C18.5442 17.2592 17.309 17.9653 16.3199 18.9536L8.44681 26.8266C7.34936 27.9232 6.60174 29.3206 6.2985 30.842C5.99527 32.3635 6.15003 33.9407 6.74322 35.3742C7.33642 36.8078 8.34139 38.0332 9.63105 38.8955C10.9207 39.7578 12.4371 40.2183 13.9885 40.2188C15.0193 40.2218 16.0405 40.0203 16.9929 39.6259C17.9454 39.2316 18.8101 38.6522 19.537 37.9214L20.6948 36.7614C20.9474 36.5076 21.2477 36.3062 21.5783 36.1688C21.909 36.0314 22.2636 35.9606 22.6217 35.9606C22.9798 35.9606 23.3344 36.0314 23.665 36.1688C23.9957 36.3062 24.296 36.5076 24.5486 36.7614ZM49.3912 4.23383C46.8993 1.74282 43.5202 0.343445 39.9968 0.343445C36.4734 0.343445 33.0942 1.74282 30.6024 4.23383L29.4446 5.39157C28.9339 5.90232 28.6469 6.59504 28.6469 7.31735C28.6469 8.03966 28.9339 8.73238 29.4446 9.24313C29.9554 9.75388 30.6481 10.0408 31.3704 10.0408C32.0927 10.0408 32.7854 9.75388 33.2962 9.24313L34.4562 8.08313C35.9283 6.61097 37.925 5.78392 40.007 5.78392C42.0889 5.78392 44.0856 6.61097 45.5577 8.08313C47.0299 9.55529 47.857 11.552 47.857 13.6339C47.857 15.7159 47.0299 17.7125 45.5577 19.1847L37.6711 27.0464C36.9441 27.7772 36.0794 28.3566 35.127 28.751C34.1746 29.1453 33.1534 29.3468 32.1226 29.3438C30.3543 29.3425 28.6382 28.7439 27.2527 27.6451C25.8673 26.5462 24.8936 25.0116 24.4897 23.29C24.3263 22.5876 23.8905 21.9788 23.2782 21.5977C22.6659 21.2166 21.9274 21.0943 21.2249 21.2577C20.5225 21.4212 19.9138 21.857 19.5326 22.4692C19.1515 23.0815 19.0292 23.8201 19.1927 24.5225C19.8749 27.4381 21.522 30.0377 23.8669 31.8998C26.2118 33.7619 29.1169 34.7773 32.1113 34.7813H32.1226C33.8681 34.786 35.5972 34.4447 37.2099 33.777C38.8226 33.1093 40.2869 32.1284 41.5181 30.8912L49.3912 23.0181C50.6247 21.7848 51.6033 20.3206 52.2709 18.7091C52.9385 17.0976 53.2821 15.3703 53.2821 13.626C53.2821 11.8816 52.9385 10.1544 52.2709 8.54288C51.6033 6.93136 50.6247 5.46713 49.3912 4.23383Z" fill="#134B70"/>
</svg>
